#!OML:ASF Y:\EmotionMaleHayes\Project 1\Capture day 1\Session 1\Male1.ASF
:FULLY-SPECIFIED
:DEGREES
1261
root 19.3562 16.6095 -10.4183 353.537 -33.0668 731.049
lowerback 8.1982 -1.0963 -14.6873
upperback 3.23107 -2.65397 -1.32337
thorax -0.560464 -1.46901 7.04936
lowerneck -21.3509 0.811594 2.40195
upperneck 27.8322 0.773275 -1.97355
head 12.8713 0.270091 -1.05127
rclavicle 1.35671e-014 1.46107e-014
rhumerus -53.0489 -10.6604 -80.6309
rradius 26.3883
rwrist 15.4212
rhand -2.55397 -28.3932
rfingers 7.12502
rthumb 23.142 -57.0232
lclavicle 1.35671e-014 1.46107e-014
lhumerus -17.2315 -35.9016 93.8125
lradius 54.3001
lwrist 2.12539
lhand -16.6965 -29.2226
lfingers 7.12502
lthumb 9.52822 0.541968
rfemur -23.2503 -7.01947 2.25681
rtibia 6.64474
rfoot -12.2417 -1.02195
rtoes -10.9097
lfemur 18.5646 -0.860725 -38.3983
ltibia 6.94347
lfoot -19.178 -7.52754
ltoes 13.8629
1262
root 19.2452 16.5802 -10.2915 353.473 -32.6497 731.807
lowerback 7.99334 -1.19191 -15.1631
upperback 3.13268 -2.79088 -1.44038
thorax -0.49873 -1.53915 7.18901
lowerneck -21.5023 0.734521 2.23647
upperneck 27.7213 0.683638 -1.85206
head 12.8535 0.230534 -0.99025
rclavicle 6.89845e-014 1.61513e-014
rhumerus -52.9688 -10.5722 -80.3801
rradius 26.3349
rwrist 15.4102
rhand -2.56133 -28.6663
rfingers 7.12502
rthumb 23.1349 -57.2972
lclavicle 6.89845e-014 1.61513e-014
lhumerus -16.9639 -35.5918 93.8102
lradius 54.4474
lwrist 2.15333
lhand -16.609 -29.5769
lfingers 7.12502
lthumb 9.61264 0.183821
rfemur -24.1448 -8.94527 2.15331
rtibia 6.53524
rfoot -12.3992 1.17625
rtoes -9.36526
lfemur 18.7334 -0.942489 -39.1245
ltibia 7.20534
lfoot -19.2923 -7.71619
ltoes 12.7805
1263
root 19.1277 16.5428 -10.1658 353.074 -32.2601 732.885
lowerback 7.9302 -1.22054 -16.0492
upperback 3.04969 -2.8961 -1.60371
thorax -0.483323 -1.59465 7.50754
lowerneck -21.4619 0.723608 2.24208
upperneck 27.5133 0.671136 -1.85955
head 12.7603 0.225726 -0.993813
rclavicle -1.18522e-013 2.68981e-014
rhumerus -52.8624 -10.3012 -80.2464
rradius 26.2208
rwrist 15.3661
rhand -2.70145 -28.7908
rfingers 7.12502
rthumb 23.0005 -57.4385
lclavicle -1.18522e-013 2.68981e-014
lhumerus -16.7336 -35.0947 93.8871
lradius 54.4033
lwrist 2.06656
lhand -16.5923 -30.0803
lfingers 7.12502
lthumb 9.62869 -0.320332
rfemur -25.2268 -11.507 2.04467
rtibia 7.46328
rfoot -12.4463 3.52534
rtoes -10.2876
lfemur 19.038 -1.05842 -40.1656
ltibia 7.59375
lfoot -19.4694 -7.75873
ltoes 11.0715
1264
root 19.0024 16.4999 -10.04 352.974 -31.9927 733.383
lowerback 7.84301 -1.20463 -16.4418
upperback 2.94136 -2.90052 -1.69901
thorax -0.53233 -1.58916 7.62028
lowerneck -21.3685 0.712582 2.42958
upperneck 27.3177 0.613378 -1.93102
head 12.6616 0.211486 -1.06057
rclavicle 1.84978e-014 -1.90321e-014
rhumerus -52.8993 -10.4296 -79.9558
rradius 26.1454
rwrist 15.4768
rhand -2.6454 -28.6819
rfingers 7.12502
rthumb 23.0542 -57.3229
lclavicle 1.84978e-014 -1.90321e-014
lhumerus -16.702 -34.7516 94.0036
lradius 54.3609
lwrist 1.94356
lhand -16.8328 -29.9074
lfingers 7.12502
lthumb 9.3967 -0.136854
rfemur -26.0391 -12.3163 2.10165
rtibia 8.32581
rfoot -12.784 4.05645
rtoes -12.8438
lfemur 19.3957 -1.36904 -40.6445
ltibia 8.01885
lfoot -19.7028 -7.85762
ltoes 10.9394
1265
root 18.8667 16.4581 -9.91366 353.143 -31.8041 733.41
lowerback 7.74451 -1.22652 -16.4087
upperback 2.80011 -2.92163 -1.7318
thorax -0.629005 -1.58276 7.5677
lowerneck -21.3524 0.568622 2.27304
upperneck 27.287 0.388719 -1.69129
head 12.6389 0.129237 -0.979492
rclavicle 1.53644e-014 -2.76544e-014
rhumerus -53.0748 -10.7179 -79.6166
rradius 26.2501
rwrist 15.6994
rhand -2.4585 -28.7267
rfingers 7.12502
rthumb 23.2336 -57.3452
lclavicle 1.53644e-014 -2.76544e-014
lhumerus -16.9416 -34.4622 94.0797
lradius 54.4592
lwrist 1.82261
lhand -17.0304 -29.6573
lfingers 7.12502
lthumb 9.20596 0.121753
rfemur -26.4271 -11.1182 2.04037
rtibia 8.86145
rfoot -13.0421 2.68672
rtoes -12.3573
lfemur 19.789 -1.58498 -40.5192
ltibia 8.35931
lfoot -19.753 -8.20309
ltoes 11.2111
1266
root 18.7278 16.4205 -9.78614 353.408 -31.7053 733.202
lowerback 7.69003 -1.24286 -16.1307
upperback 2.67159 -2.92316 -1.71369
thorax -0.753031 -1.56416 7.43597
lowerneck -21.3926 0.459703 2.04678
upperneck 27.2656 0.222553 -1.39894
head 12.6338 0.0726978 -0.856771
rclavicle 4.82852e-014 1.35958e-014
rhumerus -53.0988 -10.7526 -79.4359
rradius 26.2699
rwrist 15.7461
rhand -2.59767 -28.8832
rfingers 7.12502
rthumb 23.1 -57.5185
lclavicle 4.82852e-014 1.35958e-014
lhumerus -17.2417 -34.1355 94.1863
lradius 54.533
lwrist 1.67805
lhand -17.1567 -29.6251
lfingers 7.12502
lthumb 9.08417 0.15931
rfemur -26.8306 -9.74588 2.221
rtibia 9.77347
rfoot -13.1593 1.24419
rtoes -13.0935
lfemur 20.184 -1.53586 -40.0332
ltibia 8.63717
lfoot -19.7368 -8.31456
ltoes 8.20512
1267
root 18.5938 16.3883 -9.6538 353.805 -31.6609 732.776
lowerback 7.55362 -1.26353 -15.7112
upperback 2.60684 -2.89411 -1.56794
thorax -0.769954 -1.54235 7.35603
lowerneck -21.4709 0.43013 1.95513
upperneck 27.1071 0.180217 -1.28687
head 12.5849 0.0606467 -0.803955
rclavicle -9.51682e-015 -2.79044e-014
rhumerus -52.7512 -10.6076 -79.2036
rradius 26.039
rwrist 15.912
rhand -2.72343 -28.855
rfingers 7.12502
rthumb 22.9794 -57.5053
lclavicle -9.51682e-015 -2.79044e-014
lhumerus -17.2613 -33.577 94.3906
lradius 54.3276
lwrist 1.4863
lhand -17.481 -29.6417
lfingers 7.12502
lthumb 8.77118 0.156049
rfemur -27.3949 -8.82031 2.82684
rtibia 11.155
rfoot -13.0121 0.188656
rtoes -12.9923
lfemur 20.5683 -1.67177 -39.4823
ltibia 8.9466
lfoot -19.7552 -8.2952
ltoes 6.07609
1268
root 18.4579 16.3566 -9.51904 353.962 -31.5337 732.609
lowerback 7.43078 -1.31553 -15.697
upperback 2.6201 -2.93104 -1.36391
thorax -0.666486 -1.56975 7.56359
lowerneck -21.6307 0.434574 1.73699
upperneck 26.9602 0.237048 -1.19122
head 12.5589 0.0769016 -0.719642
rclavicle -5.85297e-014 1.24737e-014
rhumerus -52.1901 -10.3935 -78.8331
rradius 25.7122
rwrist 16.3708
rhand -2.85832 -28.8579
rfingers 7.12502
rthumb 22.8499 -57.5243
lclavicle -5.85297e-014 1.24737e-014
lhumerus -17.202 -32.7274 94.6462
lradius 54.046
lwrist 1.32654
lhand -17.8336 -29.8736
lfingers 7.12502
lthumb 8.43095 -0.0618915
rfemur -27.7875 -8.00002 3.14681
rtibia 12.7486
rfoot -12.5371 -0.889498
rtoes -8.08134
lfemur 21.062 -1.88963 -39.2295
ltibia 9.32757
lfoot -19.62 -8.5352
ltoes 6.36692
1269
root 18.3149 16.3197 -9.37751 353.449 -31.257 733.116
lowerback 7.56864 -1.30413 -16.1794
upperback 2.66862 -2.97554 -1.43986
thorax -0.655561 -1.59856 7.75525
lowerneck -21.6347 0.390741 1.80087
upperneck 26.8722 0.186032 -1.29947
head 12.5235 0.0464407 -0.779717
rclavicle 9.35779e-014 -1.83876e-014
rhumerus -51.8335 -10.4981 -78.52
rradius 25.4927
rwrist 16.8155
rhand -3.24358 -29.1306
rfingers 7.12502
rthumb 22.4802 -57.8421
lclavicle 9.35779e-014 -1.83876e-014
lhumerus -17.6359 -32.0393 94.8527
lradius 53.9967
lwrist 1.16226
lhand -18.1772 -30.1277
lfingers 7.12502
lthumb 8.09928 -0.302898
rfemur -27.7415 -7.38327 2.71726
rtibia 14.4568
rfoot -12.0341 -1.85502
rtoes -5.29267
lfemur 21.8428 -1.88137 -39.5636
ltibia 9.76722
lfoot -19.383 -8.74436
ltoes 5.32025
1270
root 18.1618 16.2789 -9.23267 352.975 -31.1641 733.163
lowerback 7.85932 -1.22675 -16.118
upperback 2.73557 -2.92361 -1.58079
thorax -0.77123 -1.56719 7.57818
lowerneck -21.5861 0.354509 2.08332
upperneck 26.7926 0.051148 -1.35774
head 12.4796 0.00842157 -0.87166
rclavicle 2.82026e-015 -3.65764e-014
rhumerus -51.5847 -10.9068 -78.2958
rradius 25.266
rwrist 17.2795
rhand -3.7012 -29.2353
rfingers 7.12502
rthumb 22.0409 -57.9994
lclavicle 2.82026e-015 -3.65764e-014
lhumerus -18.3074 -31.4807 94.9144
lradius 53.9141
lwrist 0.941572
lhand -18.5721 -30.3689
lfingers 7.12502
lthumb 7.71821 -0.529803
rfemur -27.3923 -6.13169 2.742
rtibia 15.9858
rfoot -11.5908 -2.94681
rtoes -6.34646
lfemur 22.8895 -1.99223 -39.4814
ltibia 10.159
lfoot -19.219 -8.64795
ltoes 4.40379
1271
root 18.029 16.2711 -9.09527 352.807 -31.0905 733.894
lowerback 7.74331 -1.26027 -16.6487
upperback 2.59612 -3.00427 -1.74163
thorax -0.814696 -1.59787 7.69977
lowerneck -21.6523 0.381779 1.99406
upperneck 26.6417 0.078741 -1.21166
head 12.4333 0.0318346 -0.794883
rclavicle 4.4975e-015 3.01656e-014
rhumerus -51.0467 -11.1381 -77.8799
rradius 24.9228
rwrist 17.8806
rhand -4.16892 -29.2169
rfingers 7.12502
rthumb 21.5917 -58.0332
lclavicle 4.4975e-015 3.01656e-014
lhumerus -18.6997 -30.4817 95.0344
lradius 53.5014
lwrist 0.828906
lhand -18.7051 -30.7958
lfingers 7.12502
lthumb 7.58983 -0.951953
rfemur -27.793 -5.1155 2.0963
rtibia 17.3493
rfoot -10.5818 -3.65096
rtoes -5.43943
lfemur 22.9121 -2.12767 -40.0789
ltibia 10.9834
lfoot -18.9952 -8.74528
ltoes 4.22506
1272
root 17.8839 16.2605 -8.93162 352.423 -30.6966 734.463
lowerback 7.61603 -1.41121 -17.1786
upperback 2.6526 -3.21122 -1.74239
thorax -0.594674 -1.72482 7.99197
lowerneck -21.7232 0.439656 1.78154
upperneck 26.4735 0.237527 -1.20197
head 12.3832 0.0819591 -0.727246
rclavicle 1.78161e-014 3.598e-014
rhumerus -50.3709 -10.8957 -77.5399
rradius 24.7735
rwrist 18.1864
rhand -4.84705 -29.3889
rfingers 7.12502
rthumb 20.9404 -58.2785
lclavicle 1.78161e-014 3.598e-014
lhumerus -19.1256 -29.3063 95.3017
lradius 53.1266
lwrist 0.901217
lhand -18.7324 -31.2571
lfingers 7.12502
lthumb 7.56348 -1.41233
rfemur -27.3353 -4.74488 1.44652
rtibia 17.8857
rfoot -8.75879 -3.72717
rtoes -1.20639
lfemur 23.4915 -2.29268 -40.6311
ltibia 11.6916
lfoot -18.5812 -9.06583
ltoes 4.27459
1273
root 17.7446 16.2506 -8.77769 352.438 -30.6888 734.345
lowerback 7.58462 -1.43213 -16.8866
upperback 2.59811 -3.21558 -1.72223
thorax -0.652919 -1.71698 7.85409
lowerneck -21.6469 0.481584 1.91382
upperneck 26.3703 0.288589 -1.32164
head 12.3283 0.102002 -0.785562
rclavicle -1.16662e-013 -3.77691e-015
rhumerus -49.8718 -10.7506 -77.3665
rradius 24.7092
rwrist 18.5248
rhand -5.13472 -29.3945
rfingers 7.12502
rthumb 20.664 -58.3145
lclavicle -1.16662e-013 -3.77691e-015
lhumerus -19.9963 -28.5859 95.5477
lradius 53.0655
lwrist 0.875352
lhand -19.2136 -31.2285
lfingers 7.12502
lthumb 7.09893 -1.36751
rfemur -27.2574 -4.20819 1.55738
rtibia 18.418
rfoot -6.94875 -3.61627
rtoes 3.74368
lfemur 23.9235 -2.63412 -40.6131
ltibia 12.4359
lfoot -18.137 -8.94543
ltoes 4.25109
1274
root 17.6039 16.2459 -8.63892 352.79 -31.047 733.771
lowerback 7.55117 -1.32498 -16.232
upperback 2.46522 -3.02872 -1.61037
thorax -0.859998 -1.5966 7.60863
lowerneck -21.4453 0.485066 2.16523
upperneck 26.1645 0.251953 -1.46448
head 12.2065 0.092288 -0.886092
rclavicle 2.36554e-014 7.35503e-015
rhumerus -49.3712 -11.145 -76.9643
rradius 24.4675
rwrist 19.4664
rhand -5.09274 -29.3573
rfingers 7.12502
rthumb 20.7043 -58.2729
lclavicle 2.36554e-014 7.35503e-015
lhumerus -20.8632 -27.9273 95.8404
lradius 52.8627
lwrist 0.656753
lhand -20.0668 -30.7787
lfingers 7.12502
lthumb 6.27532 -0.891663
rfemur -27.6064 -2.84745 2.13518
rtibia 19.1731
rfoot -5.91303 -4.04518
rtoes 6.67949
lfemur 24.0867 -2.85161 -39.9901
ltibia 13.2143
lfoot -17.7092 -8.41686
ltoes 2.23848
